<svg width="22" height="22" viewBox="0 0 22 22" fill="none" xmlns="http://www.w3.org/2000/svg">
<path d="M16.238 6.25607H17.1904M5.2856 1.47803H16.7142C18.8181 1.47803 20.5237 3.18939 20.5237 5.30046V16.7678C20.5237 18.8789 18.8181 20.5902 16.7142 20.5902H5.2856C3.18166 20.5902 1.47607 18.8789 1.47607 16.7678V5.30046C1.47607 3.18939 3.18166 1.47803 5.2856 1.47803ZM10.9999 14.8566C8.89594 14.8566 7.19036 13.1452 7.19036 11.0341C7.19036 8.92305 8.89594 7.21168 10.9999 7.21168C13.1038 7.21168 14.8094 8.92305 14.8094 11.0341C14.8094 13.1452 13.1038 14.8566 10.9999 14.8566Z" stroke="#F0F4FF" stroke-width="1.67232"/>
</svg>
